<?xml version="1.0" standalone="no"?><!DOCTYPE svg PUBLIC "-//W3C//DTD SVG 1.1//EN" "http://www.w3.org/Graphics/SVG/1.1/DTD/svg11.dtd"><svg viewBox="0 0 1024 1024" version="1.1" xmlns="http://www.w3.org/2000/svg" xmlns:xlink="http://www.w3.org/1999/xlink" width="25" height="25"><path d="M195.362834 269.042701c-0.127599-1.148392-0.255198-2.296784-0.255198-3.445175 0-14.354899 11.611518-25.902617 25.902617-25.902617h670.469469a25.902617 25.902617 0 1 1 0 51.805234h-65.266939a317.976956 317.976956 0 1 1-631.041347-22.393642h0.191398v-0.0638z m471.861471 355.554891s-63.990948 79.558039-132.128868 89.000372v141.953999c0-0.0638 205.689749-113.626998 132.128868-230.954371z m-303.749657 1.339791c-73.433282 117.454971 132.192667 230.95437 132.192667 230.95437v-141.890199c-68.07412-9.442333-132.192667-89.064172-132.192667-89.064171z m377.629535 67.946521c1.977786 2.296784 3.827973 4.721167 5.359162 7.273148l147.249361 231.656165a56.590201 56.590201 0 0 1 1.020793 60.545773 61.885563 61.885563 0 0 1-54.803813 30.559985H169.715415a61.885563 61.885563 0 0 1-54.740013-30.559985 56.207403 56.207403 0 0 1 1.084592-60.545773L263.181756 701.157052c2.743381-4.21077 5.869559-8.102543 9.314734-11.483919l9.250935 11.547719a49.125653 49.125653 0 0 1 3.189977 58.248989l-79.621838 125.302315c-12.121914 19.076065-12.440912 41.214509-1.020793 60.609573s31.453178 30.559984 54.740014 30.559984h491.70313c23.223036 0 43.256095-11.164921 54.676214-30.559984s10.973523-41.533507-1.084592-60.609573l-76.304261-120.198351a48.870455 48.870455 0 0 1 3.189977-58.18519l9.88893-12.504711zM505.301047 0a317.913157 317.913157 0 0 1 300.623479 214.302688H204.677569A317.976956 317.976956 0 0 1 505.301047 0z m279.314429 291.436343H234.089161a276.443449 276.443449 0 1 0 551.738507 26.540613 261.322956 261.322956 0 0 0-1.212192-26.540613z" p-id="1688"></path></svg>
